<svg xmlns="http://www.w3.org/2000/svg" xmlns:svg="http://www.w3.org/2000/svg" id="svg5862" width="16" height="16" version="1.1" viewBox="0 0 4.233 4.233"><defs id="defs5856"><style id="current-color-scheme" type="text/css">.ColorScheme-Text{color:#4d4d4d}</style></defs><metadata id="metadata5859"/><g id="layer1" transform="translate(0,-292.76667)"><path style="color:#000;font-style:normal;font-variant:normal;font-weight:400;font-stretch:normal;font-size:medium;line-height:normal;font-family:sans-serif;font-variant-ligatures:normal;font-variant-position:normal;font-variant-caps:normal;font-variant-numeric:normal;font-variant-alternates:normal;font-feature-settings:normal;text-indent:0;text-align:start;text-decoration:none;text-decoration-line:none;text-decoration-style:solid;text-decoration-color:#000;letter-spacing:normal;word-spacing:normal;text-transform:none;writing-mode:lr-tb;direction:ltr;text-orientation:mixed;dominant-baseline:auto;baseline-shift:baseline;text-anchor:start;white-space:normal;shape-padding:0;clip-rule:nonzero;display:inline;overflow:visible;visibility:visible;opacity:1;isolation:auto;mix-blend-mode:normal;color-interpolation:sRGB;color-interpolation-filters:linearRGB;solid-color:#000;solid-opacity:1;vector-effect:none;fill:#455a64;fill-opacity:1;fill-rule:nonzero;stroke:none;stroke-width:.52619326;stroke-linecap:round;stroke-linejoin:round;stroke-miterlimit:4;stroke-dasharray:none;stroke-dashoffset:0;stroke-opacity:1;color-rendering:auto;image-rendering:auto;shape-rendering:auto;text-rendering:auto;enable-background:accumulate" id="path7761" d="m 0.7941577,293.29595 a 0.2630958,0.26315016 0 0 0 -0.1844,0.4507 l 1.1303999,1.13061 -1.1303999,1.13062 a 0.2630958,0.26315016 0 1 0 0.373,0.37104 l 1.1288999,-1.1301 1.12977,1.1301 a 0.2630958,0.26315016 0 1 0 0.3710001,-0.37104 l -1.1293701,-1.13062 1.1293701,-1.13061 a 0.2630958,0.26315016 0 0 0 -0.1906,-0.4507 0.2630958,0.26315016 0 0 0 -0.1804001,0.0797 l -1.12977,1.1301 -1.1288999,-1.1301 a 0.2630958,0.26315016 0 0 0 -0.1886,-0.0797 z"/><g id="layer1-6" transform="matrix(0.26458333,0,0,0.26458333,-0.7987585,19.349235)"><path id="path3201" d="m 6.0036473,1035.362 a 0.99742186,0.99796203 0 0 0 -0.6953985,1.7131 l 4.2814727,4.2838 -4.2814727,4.2839 a 0.99742186,0.99796203 0 1 0 1.4102758,1.4109 l 4.2814734,-4.2836 4.281472,4.2836 a 0.99742186,0.99796203 0 1 0 1.410276,-1.4109 l -4.281473,-4.2839 4.281473,-4.2838 a 0.99742186,0.99796203 0 0 0 -0.724617,-1.7111 0.99742186,0.99796203 0 0 0 -0.685659,0.3002 l -4.281472,4.2836 -4.2814734,-4.2836 a 0.99742186,0.99796203 0 0 0 -0.7148773,-0.3022 z" class="ColorScheme-Text" style="color:#4d4d4d;fill:currentColor;fill-opacity:1;stroke:none"/></g></g></svg>