<svg xmlns="http://www.w3.org/2000/svg" xmlns:svg="http://www.w3.org/2000/svg" id="svg5862" width="16" height="16" version="1.1" viewBox="0 0 4.233 4.233"><metadata id="metadata5859"/><g id="layer1" transform="translate(0,-292.76667)"><g id="g6423" transform="translate(0.01191931,-0.24578523)"><path style="opacity:1;fill:#455a64;fill-opacity:1;stroke:none;stroke-width:2.33333325;stroke-linecap:round;stroke-linejoin:round;stroke-miterlimit:4;stroke-dasharray:none;stroke-opacity:1" id="rect7763" d="M 3.3339844 1 C 2.0413133 1 1 2.0413133 1 3.3339844 L 1 12.666016 C 1 13.958687 2.0413133 15 3.3339844 15 L 12.666016 15 C 13.958687 15 15 13.958687 15 12.666016 L 15 3.3339844 C 15 2.0413133 13.958687 1 12.666016 1 L 3.3339844 1 z M 7.5527344 3.0019531 L 12.970703 3.0019531 L 12.970703 5.9980469 L 12.970703 8.4121094 L 10.962891 6.4121094 C 9.4343019 7.9407393 7.9074901 9.4674638 6.3789062 10.996094 L 8.3789062 12.996094 L 2.96875 12.996094 L 2.96875 10 L 2.96875 7.5859375 L 4.96875 9.5859375 C 6.4963991 8.0582525 8.0250902 6.5296382 9.5527344 5.0019531 L 7.5527344 3.0019531 z" transform="matrix(0.26458333,0,0,0.26458333,-0.01191931,293.01246)"/></g></g></svg>