<svg xmlns="http://www.w3.org/2000/svg" xmlns:svg="http://www.w3.org/2000/svg" id="svg5862" width="16" height="16" version="1.1" viewBox="0 0 4.233 4.233"><metadata id="metadata5859"/><g id="layer1" transform="translate(0,-292.76667)"><g id="g6423" transform="translate(0.01191931,-0.24578523)"><path style="opacity:1;fill:#455a64;fill-opacity:1;stroke:none;stroke-width:2.33333325;stroke-linecap:round;stroke-linejoin:round;stroke-miterlimit:4;stroke-dasharray:none;stroke-opacity:1" id="rect7763" d="M 3.3339844 1 C 2.0413133 1 1 2.0413133 1 3.3339844 L 1 12.666016 C 1 13.958687 2.0413133 15 3.3339844 15 L 12.666016 15 C 13.958687 15 15 13.958687 15 12.666016 L 15 3.3339844 C 15 2.0413133 13.958687 1 12.666016 1 L 3.3339844 1 z M 12.470703 2.0820312 L 13.880859 3.4921875 L 11.550781 5.8222656 L 13.550781 7.8300781 L 11.136719 7.8300781 L 8.140625 7.8300781 L 8.140625 2.4121094 L 10.140625 4.4121094 L 12.470703 2.0820312 z M 2.3730469 8.2539062 L 7.7832031 8.2539062 L 7.7832031 11.25 L 7.7832031 13.664062 L 5.7832031 11.664062 L 3.5292969 13.917969 L 2.1191406 12.507812 L 4.3730469 10.253906 L 2.3730469 8.2539062 z" transform="matrix(0.26458333,0,0,0.26458333,-0.01191931,293.01246)"/></g></g></svg>