<svg xmlns="http://www.w3.org/2000/svg" xmlns:svg="http://www.w3.org/2000/svg" id="svg926" width="30" height="30" version="1.1" viewBox="0 0 7.938 7.938"><metadata id="metadata923"/><g id="layer1" transform="translate(-180.48363,-84.388393)"><g id="pressed-center-1" transform="matrix(0.26458333,0,0,0.26458333,180.48363,84.388393)"><rect style="opacity:.7;fill:none;fill-opacity:1;stroke:none;stroke-width:1;stroke-linecap:round;stroke-linejoin:round;stroke-miterlimit:4;stroke-dasharray:none;stroke-dashoffset:0;stroke-opacity:1" id="rect1036-2" width="30" height="30" x="0" y="0"/><g id="g6448" transform="matrix(1.1538462,0,0,1.1538462,-2.307692,-2.307692)"><rect id="rect868-8" width="26" height="26" x="2" y="-28" ry="13" transform="scale(1,-1)" style="opacity:.02999998;fill:#5e35b1;fill-opacity:1;stroke:none;stroke-width:1.625;stroke-linecap:round;stroke-linejoin:round;stroke-miterlimit:4;stroke-dasharray:none;stroke-opacity:1;paint-order:stroke markers fill"/><rect style="opacity:.07000002;fill:#5e35b1;fill-opacity:1;stroke:none;stroke-width:1.5;stroke-linecap:round;stroke-linejoin:round;stroke-miterlimit:4;stroke-dasharray:none;stroke-opacity:1;paint-order:stroke markers fill" id="rect866-7" width="24" height="24" x="3" y="-27" ry="12" transform="scale(1,-1)"/><rect id="rect864-9" width="22" height="22" x="4" y="-26" ry="11" transform="scale(1,-1)" style="opacity:.15;fill:#5e35b1;fill-opacity:1;stroke:none;stroke-width:1.375;stroke-linecap:round;stroke-linejoin:round;stroke-miterlimit:4;stroke-dasharray:none;stroke-opacity:1;paint-order:stroke markers fill"/><rect style="opacity:.3;fill:#5e35b1;fill-opacity:1;stroke:none;stroke-width:1.25;stroke-linecap:round;stroke-linejoin:round;stroke-miterlimit:4;stroke-dasharray:none;stroke-opacity:1;paint-order:stroke markers fill" id="rect862-2" width="20" height="20" x="5" y="-25" ry="10" transform="scale(1,-1)"/><rect id="rect1034-0" width="18" height="18" x="6" y="-24" ry="9" transform="scale(1,-1)" style="opacity:1;fill:#5e35b1;fill-opacity:1;stroke:none;stroke-width:1.125;stroke-linecap:round;stroke-linejoin:round;stroke-miterlimit:4;stroke-dasharray:none;stroke-opacity:1;paint-order:stroke markers fill"/><rect style="opacity:1;fill:#7e57c2;fill-opacity:1;stroke:none;stroke-width:1;stroke-linecap:round;stroke-linejoin:round;stroke-miterlimit:4;stroke-dasharray:none;stroke-opacity:1;paint-order:stroke markers fill" id="rect1038-3" width="16" height="16" x="7" y="-23" ry="8" transform="scale(1,-1)"/><path style="fill:#f5f5f5;fill-opacity:1;fill-rule:evenodd;stroke:#f5f5f5;stroke-width:2;stroke-linecap:round;stroke-linejoin:round;stroke-miterlimit:4;stroke-dasharray:none;stroke-opacity:1" id="path1040-7" d="m 11.999879,15.000108 3,2.999933 3,-2.999933 -3,-3.000067 z"/></g></g></g></svg>