<svg xmlns="http://www.w3.org/2000/svg" xmlns:svg="http://www.w3.org/2000/svg" id="svg4359" width="22" height="22" version="1.1" viewBox="0 0 22 22"><defs id="defs3051"><style id="current-color-scheme" type="text/css">.ColorScheme-Text{color:#4d4d4d}</style></defs><metadata id="metadata4364"/><g id="layer1" transform="translate(0,-26)"><path style="fill:currentColor;fill-opacity:1;stroke:none" id="path4151" d="M 11 2 A 9 9 0 0 0 2 11 A 9 9 0 0 0 11 20 A 9 9 0 0 0 20 11 A 9 9 0 0 0 11 2 z M 11 4 A 7 7 0 0 1 18 11 A 7 7 0 0 1 11 18 A 7 7 0 0 1 4 11 A 7 7 0 0 1 11 4 z M 11 6 A 1 1 0 0 0 10 7 A 1 1 0 0 0 11 8 A 1 1 0 0 0 12 7 A 1 1 0 0 0 11 6 z M 9 9 C 8.446 9 8 9.446 8 10 C 8 10.554 8.446 11 9 11 L 10 11 L 10 14.988281 C 9.980875 16.336823 12.019125 16.336823 12 14.988281 L 12 10.011719 C 12.000029 10.009587 11.998031 10.007988 11.998047 10.005859 C 11.99806 10.003732 12 10.002131 12 10 C 12 9.8989216 11.971 9.8066789 11.943359 9.7148438 C 11.933709 9.68278 11.93651 9.6458336 11.923828 9.6152344 C 11.923828 9.6152344 11.921875 9.6132812 11.921875 9.6132812 C 11.891416 9.5402596 11.839021 9.4828722 11.792969 9.4199219 C 11.762646 9.3784722 11.743258 9.3291951 11.707031 9.2929688 C 11.672674 9.2586215 11.626934 9.2400249 11.587891 9.2109375 C 11.521949 9.1618102 11.459982 9.1079849 11.382812 9.0761719 C 11.369074 9.0704946 11.351929 9.0734345 11.337891 9.0683594 C 11.231568 9.0300314 11.119856 9 11 9 L 10.984375 9 L 9 9 z" class="ColorScheme-Text" transform="translate(0,26)"/></g></svg>