<svg xmlns="http://www.w3.org/2000/svg" xmlns:svg="http://www.w3.org/2000/svg" id="svg2" width="22" height="22" version="1.1" viewBox="0 0 22 22"><defs id="defs3051"><style id="current-color-scheme" type="text/css">.ColorScheme-Text{color:#4d4d4d}</style></defs><metadata id="metadata7"/><g id="layer1" transform="translate(0,-1030.3622)"><path style="fill:currentColor;fill-opacity:1;stroke:none" id="path4168" d="M 9.5 2 A 7.5 7.5 0 0 0 2 9.5 A 7.5 7.5 0 0 0 9.5 17 A 7.5 7.5 0 0 0 14.042969 15.457031 L 18.291016 19.707031 C 18.486884 19.9029 18.744381 20 19 20 C 19.255619 20 19.511163 19.9029 19.707031 19.707031 C 19.9029 19.511163 20 19.255619 20 19 C 20 18.744381 19.9029 18.488837 19.707031 18.292969 L 15.458984 14.044922 A 7.5 7.5 0 0 0 17 9.5 A 7.5 7.5 0 0 0 9.5 2 z M 9.5 4 A 5.5 5.5 0 0 1 15 9.5 A 5.5 5.5 0 0 1 9.5 15 A 5.5 5.5 0 0 1 4 9.5 A 5.5 5.5 0 0 1 9.5 4 z" class="ColorScheme-Text" transform="translate(0,1030.3622)"/></g></svg>