<svg xmlns="http://www.w3.org/2000/svg" xmlns:svg="http://www.w3.org/2000/svg" id="svg2" width="22" height="22" version="1.1" viewBox="0 0 22 22"><defs id="defs3051"><style id="current-color-scheme" type="text/css">.ColorScheme-Text{color:#4d4d4d}</style></defs><metadata id="metadata7"/><g id="layer1" transform="translate(0,-1030.3622)"><path style="fill:currentColor;fill-opacity:1;stroke:none" id="path4153" d="M 4 4 C 2.8919904 4 2 4.892 2 6 L 2 18 C 2 19.108 2.8919904 20 4 20 L 12 20 L 12 18 L 4 18 L 4 6 L 8 6 L 9 6 L 9.5859375 6 L 11.292969 7.7070312 C 11.480481 7.8945674 11.734801 7.9999489 12 8 L 13 8 L 15 8 L 18 8 L 18 9 L 18 12 L 20 12 L 20 9 L 20 8 C 20 6.8920048 19.107995 6 18 6 L 15 6 L 13 6 L 12.414062 6 L 10.707031 4.2929688 C 10.519519 4.1054326 10.265199 4.0000511 10 4 L 9 4 L 8 4 L 4 4 z M 16 14 L 16 16 L 14 16 L 14 18 L 16 18 L 16 20 L 18 20 L 18 18 L 20 18 L 20 16 L 18 16 L 18 14 L 16 14 z" class="ColorScheme-Text" transform="translate(0,1030.3622)"/></g></svg>