<svg xmlns="http://www.w3.org/2000/svg" xmlns:svg="http://www.w3.org/2000/svg" id="svg2" width="22" height="22" version="1.1" viewBox="0 0 22 22"><defs id="defs3051"><style id="current-color-scheme" type="text/css">.ColorScheme-Text{color:#4d4d4d}</style></defs><metadata id="metadata7"/><g id="layer1" transform="translate(0,-1030.3622)"><path style="fill:currentColor;fill-opacity:1;stroke:none" id="path3215" d="M 11 3 A 8 8 0 0 0 3 11 A 8 8 0 0 0 11 19 A 8 8 0 0 0 16.523438 16.773438 A 1 1 0 0 0 16.630859 16.675781 A 8 8 0 0 0 16.654297 16.654297 L 16.652344 16.652344 A 1 1 0 0 0 16.912109 15.982422 A 1 1 0 0 0 15.912109 14.982422 A 1 1 0 0 0 15.242188 15.242188 L 15.240234 15.240234 A 6 6 0 0 1 11 17 A 6 6 0 0 1 5 11 A 6 6 0 0 1 11 5 A 6 6 0 0 1 16.037109 7.7519531 L 15.201172 8.234375 A 1.0001 1.0001 0 0 0 15.404297 10.056641 L 18.302734 10.955078 A 1.0001 1.0001 0 0 0 19.589844 10.142578 L 19.990234 7.3417969 A 1.0001 1.0001 0 0 0 19.011719 6.2011719 A 1.0001 1.0001 0 0 0 18.5 6.3339844 L 17.763672 6.7578125 A 8 8 0 0 0 11 3 z" class="ColorScheme-Text" transform="translate(0,1030.3622)"/></g></svg>